<svg width="20" height="20" fill="none" xmlns="http://www.w3.org/2000/svg"><g clip-path="url(#clip0_5_521)" stroke="#fff" stroke-width="1.5"><path d="M7.341 1.667L4.325 4.692m8.333-3.025l3.016 3.025" stroke-miterlimit="10" stroke-linecap="round" stroke-linejoin="round"/><path d="M1.667 6.543c0-1.542.824-1.667 1.85-1.667h12.966c1.025 0 1.85.125 1.85 1.667 0 1.792-.825 1.667-1.85 1.667H3.517c-1.026 0-1.85.125-1.85-1.667z"/><path d="M4.092 15.533c.266 1.617.908 2.8 3.291 2.8h5.026c2.591 0 2.974-1.133 3.274-2.7l1.4-7.3m-14.166 0l.575 3.542" stroke-linecap="round"/></g><defs><clipPath id="clip0_5_521"><path fill="#fff" d="M0 0h20v20H0z"/></clipPath></defs></svg>