<svg width="150" height="150" fill="none" xmlns="http://www.w3.org/2000/svg"><path fill-rule="evenodd" clip-rule="evenodd" d="M137.188 97.724l-.643-74.482L111 42.556v41.069h11.035c1.599 0 3.122.68 4.189 1.87l10.964 12.229zm5.301 5.913l-.713-82.677c-.029-3.39-3.908-5.3-6.613-3.255L108.124 38.15 80.279 23.454l-2.45 4.643 27.921 14.736v40.792h-1.875a5.625 5.625 0 00-5.625 5.625v24.375H96v-6.375a5.625 5.625 0 00-5.625-5.625H70.5V95.25a5.627 5.627 0 00-4.125-5.423V51h-4.5v38.625H45V82.5a5.627 5.627 0 00-4.5-5.513V40.791c0-.138.076-.265.197-.33l10.484-5.645-2.49-4.623-10.483 5.645a5.625 5.625 0 00-2.958 4.953v36.084H19.875A5.625 5.625 0 0014.25 82.5v31.125h-1.875a8.625 8.625 0 00-8.625 8.625v12.375h9.663C14.61 139.99 19.399 144 25.125 144s10.515-4.01 11.712-9.375h68.076c1.197 5.365 5.986 9.375 11.712 9.375s10.515-4.01 11.712-9.375h11.538A5.624 5.624 0 00145.5 129v-19.852a5.626 5.626 0 00-1.437-3.755l-.063-.071v-.697h-.625l-.886-.988zM105.75 88.875h-1.875a.375.375 0 00-.375.375v40.125h1.413c1.197-5.365 5.986-9.375 11.712-9.375s10.515 4.01 11.712 9.375h11.538a.375.375 0 00.375-.375v-1.125h-10.5v-5.25h10.5v-12.75h-30v-21h-4.5zm-65.132 24.75H19.5v-6.75h21.118v6.75zm25.536 0H45v-6.75h21.154v6.75zm24.596 0H70.5v-6.75h19.875c.207 0 .375.168.375.375v6.375zm-78.375 5.25H98.25v3.75h-61.5V126h61.5v3.375H36.837C35.64 124.01 30.851 120 25.125 120s-10.515 4.01-11.712 9.375H9v-7.125a3.375 3.375 0 013.375-3.375zM31.875 132a6.75 6.75 0 11-13.5 0 6.75 6.75 0 0113.5 0zM115.5 88.875v15.75h20.824L122.315 89a.376.376 0 00-.28-.125H115.5zm4.5 23.25h-10.5v5.25H120v-5.25zm-3.375 26.625a6.75 6.75 0 100-13.5 6.75 6.75 0 000 13.5zm-50.471-37.125V95.25c0-.207-1.072-.375-1.279-.375H45v6.75h21.154zm-25.536 0v-6.75H19.5v6.75h21.118zm-21.118-12h20.25V82.5a.375.375 0 00-.375-.375h-19.5a.375.375 0 00-.375.375v7.125zM68.625 26.25a4.5 4.5 0 11-9 0 4.5 4.5 0 019 0zm3.75 0a8.25 8.25 0 11-16.5 0 8.25 8.25 0 0116.5 0z" fill="#242424"/><path fill-rule="evenodd" clip-rule="evenodd" d="M74.596 31.56c1.595-3.444 2.279-5.87 2.279-7.142 0-6.776-5.626-12.418-12.75-12.418s-12.75 5.642-12.75 12.418c0 1.272.684 3.698 2.279 7.142 1.51 3.262 3.563 6.872 5.674 10.287a193.357 193.357 0 004.797 7.358 193.357 193.357 0 004.797-7.358c2.11-3.415 4.163-7.025 5.674-10.287zM66.88 53.137c4.87-7.008 14.495-21.74 14.495-28.72 0-9.343-7.723-16.917-17.25-16.917-9.527 0-17.25 7.574-17.25 16.918 0 6.979 9.624 21.71 14.495 28.72A168.416 168.416 0 0064.125 57s1.105-1.488 2.755-3.863z" fill="#84D904"/><path d="M64.875 55.5c3 4.226 10.35 13.125 15.75 14.915 6.75 2.237 21 8.202 34.5 1.49 10.8-5.368 19-11.185 21.75-13.422" stroke="#84D904" stroke-width="3.5" stroke-dasharray="3.5 3.5"/></svg>