<svg width="150" height="150" fill="none" xmlns="http://www.w3.org/2000/svg"><path d="M60.17 144c-.523-.936-1.315-1.813-1.554-2.809-1.375-5.9-2.615-11.829-3.9-17.744-.074-.342-.209-.654-.343-1.085-4.661 2.437-9.248 4.83-13.834 7.223-1.24.639-2.48 1.278-3.706 1.946-1.075.595-2.121.847-3.092-.119-.911-.906-.687-1.902-.194-2.972 4.512-9.585 8.994-19.171 13.49-28.77.21-.447.404-.892.464-1.011-1.554-3.002-3.033-5.752-4.408-8.56-.687-1.397-1.598-2.423-3.062-3.062-1.898-.832-3.72-1.813-5.573-2.749-3.436-1.739-4.99-4.518-4.72-8.322.149-2.155.223-4.31.387-6.45.105-1.323-.268-2.452-1.03-3.522-1.225-1.724-2.36-3.507-3.526-5.26-2.077-3.137-2.092-6.302-.015-9.453 1.24-1.872 2.57-3.7 3.705-5.632.493-.847.822-1.917.822-2.883 0-2.288-.194-4.577-.359-6.85-.254-3.642 1.3-6.48 4.587-8.145 2.046-1.04 4.168-1.961 6.14-3.106.911-.535 1.778-1.382 2.316-2.303 1.12-1.887 2.017-3.909 2.987-5.87 1.674-3.389 4.378-5.008 8.173-4.815 2.121.104 4.242.178 6.349.401 1.48.149 2.734-.178 3.944-1.025 1.778-1.234 3.586-2.408 5.408-3.582 3.078-1.991 6.185-1.991 9.263 0 1.972 1.263 3.855 2.675 5.886 3.82.912.52 2.122.742 3.182.742 2.346 0 4.692-.297 7.022-.371 3.451-.104 5.991 1.427 7.575 4.458 1.09 2.066 2.002 4.22 3.182 6.242.538.906 1.404 1.768 2.315 2.289 1.987 1.159 4.094 2.065 6.141 3.105 3.331 1.71 4.81 4.444 4.571 8.144-.149 2.244-.373 4.488-.343 6.718.015 1.055.373 2.214.896 3.135 1.046 1.828 2.286 3.552 3.481 5.29 2.256 3.315 2.241 6.6-.03 9.898-1.15 1.665-2.211 3.389-3.376 5.038-.807 1.13-1.136 2.289-1.016 3.656.179 2.155.269 4.31.403 6.45.224 3.64-1.24 6.36-4.512 8.054-1.957 1.011-3.929 2.022-5.931 2.928-1.359.61-2.226 1.575-2.868 2.883-1.39 2.809-2.869 5.573-4.482 8.679 1.195 2.541 2.555 5.499 3.944 8.456 3.272 6.985 6.559 13.969 9.845 20.954.09.208.18.401.284.609.493.981.508 1.917-.313 2.72-.867.847-1.823.773-2.854.238a3177.984 3177.984 0 00-14.118-7.386c-1.195-.624-2.39-1.249-3.735-1.947-.657 3.002-1.3 5.885-1.927 8.753-.762 3.463-1.45 6.94-2.301 10.373-.224.922-.971 1.709-1.479 2.556h-1.629c-.537-.743-1.195-1.441-1.568-2.259-3.421-7.207-6.783-14.43-10.174-21.652-.194-.416-.418-.818-.717-1.412-.314.624-.538 1.011-.717 1.412-3.362 7.178-6.708 14.356-10.115 21.519-.403.862-1.075 1.59-1.628 2.377h-1.629l.015.06zm54.052-104.578h.044c.075-1.263.12-2.511.21-3.76.149-1.916-.613-3.284-2.376-4.13-2.106-1.011-4.183-2.096-6.289-3.122-1.734-.847-3.003-2.125-3.84-3.834-1.001-2.006-2.047-3.997-3.003-6.033-.896-1.918-2.316-2.75-4.422-2.571-2.107.178-4.228.237-6.35.416-2.106.178-4.018-.253-5.781-1.427-1.868-1.263-3.765-2.467-5.633-3.73-1.688-1.16-3.301-1.189-5.004-.03-1.883 1.308-3.825 2.527-5.737 3.805-1.718 1.144-3.6 1.56-5.662 1.382-2.197-.179-4.408-.268-6.619-.431-1.942-.134-3.286.683-4.123 2.407-1.001 2.066-2.047 4.102-3.063 6.153-.866 1.753-2.166 3.061-3.944 3.908-2.062.996-4.108 2.066-6.17 3.047-1.808.862-2.57 2.259-2.405 4.235.179 2.333.269 4.666.418 6.985.12 1.917-.403 3.626-1.464 5.216-1.255 1.858-2.48 3.76-3.75 5.603-1.135 1.634-1.15 3.225-.03 4.874 1.15 1.665 2.181 3.403 3.377 5.038 1.449 1.977 2.076 4.131 1.852 6.569-.18 2.006-.239 4.027-.373 6.048-.165 2.378.418 3.433 2.584 4.518 1.972.98 3.944 1.976 5.931 2.927 1.823.877 3.152 2.215 4.019 4.013.986 2.021 2.032 3.998 3.003 6.019.852 1.798 2.226 2.615 4.228 2.467 2.166-.164 4.332-.253 6.484-.431 2.106-.179 4.019.252 5.781 1.426 1.838 1.234 3.72 2.378 5.513 3.656 1.838 1.308 3.541 1.249 5.349-.03 1.688-1.188 3.466-2.273 5.169-3.447 1.897-1.308 3.959-1.828 6.275-1.59 2.106.208 4.228.267 6.349.416 1.942.133 3.287-.684 4.123-2.408 1.016-2.095 2.077-4.176 3.123-6.271.836-1.665 2.076-2.913 3.765-3.73 2.106-1.026 4.183-2.11 6.289-3.121 1.808-.862 2.57-2.259 2.421-4.236-.18-2.377-.284-4.755-.419-7.118-.104-1.813.389-3.463 1.405-4.964 1.255-1.872 2.465-3.76 3.749-5.602 1.196-1.724 1.24-3.374.03-5.112-1.284-1.843-2.495-3.73-3.75-5.603-1.03-1.546-1.553-3.225-1.434-5.083.075-1.114.12-2.244.165-3.358m-52.633 95.274l.313.03c4.467-9.526 8.92-19.037 13.491-28.771-2.913.371-5.094-.847-7.186-2.333-1.36-.951-2.794-1.813-4.153-2.764-1.136-.788-2.33-1.04-3.705-.937-2.555.208-5.125.372-7.694.402-.867 0-1.255.237-1.614.995-3.496 7.52-7.021 15.025-10.547 22.544-.135.298-.21.625-.389 1.115 4.826-2.526 9.442-4.949 14.074-7.371 2.33-1.219 3.54-.654 4.093 1.858 1.106 5.067 2.211 10.135 3.332 15.202m46.97-9.629a6579.28 6579.28 0 00-11.324-24.12c-.135-.282-.568-.565-.882-.58a573.756 573.756 0 00-8.784-.445c-1.898-.09-5.513 2.065-6.32 3.759-1.389 2.958-2.823 5.915-4.138 8.902-.239.52-.254 1.323 0 1.843 2.973 6.479 6.02 12.929 9.054 19.379.164.342.373.639.672 1.174a6491.548 6491.548 0 003.346-15.248c.628-2.838 1.718-3.373 4.273-2.036 4.587 2.393 9.158 4.786 14.103 7.372z" fill="#242424"/><path d="M74.287 87.706c-17.674-.015-31.97-14.237-31.956-31.773.03-17.506 14.387-31.669 32.09-31.639 17.495.03 31.823 14.385 31.733 31.847-.075 17.432-14.372 31.58-31.882 31.565m-.104-4.31c15.223.03 27.609-12.215 27.638-27.314.03-15.188-12.31-27.449-27.638-27.463-15.09 0-27.46 12.275-27.504 27.33-.045 15.098 12.31 27.418 27.519 27.448" fill="#84D904"/><path d="M86.926 77.408c-.313-.134-.911-.342-1.449-.64-3.45-1.872-6.887-3.73-10.308-5.662-.673-.386-1.18-.371-1.838 0-3.376 1.888-6.797 3.73-10.174 5.603-.986.535-1.942 1.04-3.018.282-1.135-.787-.986-1.887-.762-3.031.732-3.79 1.42-7.58 2.212-11.354.164-.788-.03-1.233-.583-1.739-2.884-2.645-5.737-5.35-8.605-7.995-.807-.743-1.45-1.53-1.076-2.69.388-1.204 1.404-1.471 2.554-1.605 3.81-.43 7.605-.951 11.414-1.397.867-.104 1.405-.43 1.793-1.293 1.614-3.552 3.332-7.059 4.975-10.61.448-.967 1.061-1.71 2.196-1.71 1.136 0 1.748.743 2.197 1.71 1.643 3.536 3.361 7.044 4.975 10.595.388.862.91 1.19 1.792 1.293 3.855.461 7.694.966 11.549 1.412 1.12.134 2.061.446 2.42 1.59.359 1.085-.194 1.888-.971 2.6-2.913 2.69-5.797 5.41-8.71 8.1-.553.506-.747.951-.583 1.739.822 3.998 1.569 8.01 2.301 12.023.284 1.515-.627 2.72-2.3 2.764m-2.78-6.287c-.537-2.838-.866-5.409-1.553-7.906-.628-2.303-.06-3.893 1.793-5.38 2.016-1.62 3.81-3.507 5.886-5.438-2.435-.313-4.572-.55-6.708-.848-5.11-.713-4.153.12-6.35-4.473-.956-1.991-1.897-3.997-2.972-6.256-1.345 2.823-2.645 5.335-3.72 7.92-.718 1.74-1.838 2.438-3.66 2.587-2.794.222-5.573.683-8.636 1.07 2.42 2.258 4.587 4.339 6.828 6.33 1.03.922 1.374 1.917 1.06 3.24a92.98 92.98 0 00-.717 3.552 1497.72 1497.72 0 00-1.03 5.588c2.853-1.56 5.437-2.913 7.962-4.4 1.375-.802 2.555-.742 3.9.045 2.51 1.472 5.094 2.81 7.903 4.34" fill="#242424"/></svg>