<svg width="150" height="150" fill="none" xmlns="http://www.w3.org/2000/svg"><path d="M72.495 120.36a7.083 7.083 0 00-7.05-5.25c1.365-15.525.18-16.995-9.81-25.875L32.64 68.745a9.644 9.644 0 00-7.665-2.565l.255-31.68a9.373 9.373 0 00-2.73-6.69 9.464 9.464 0 00-6.795-2.85A9.556 9.556 0 006.12 34.5v55.05c-.24 5.625 5.37 11.28 11.295 17.265 5.925 5.985 11.76 11.88 12.435 17.685a7.048 7.048 0 00-4.275 8.43l1.5 5.685a7.105 7.105 0 003.315 4.32 7.192 7.192 0 003.555.96 7.008 7.008 0 001.845-.24L69 134.76a7.11 7.11 0 004.333-3.336 7.124 7.124 0 00.692-5.424l-1.53-5.64zM10.02 89.715V34.5a5.64 5.64 0 019.675-3.96 5.55 5.55 0 011.635 3.96l-.33 33a7.5 7.5 0 00-3.84 4.905 9.945 9.945 0 003 9l20.205 17.79a1.978 1.978 0 102.58-3L22.725 78.54A6.164 6.164 0 0121 73.305a4.14 4.14 0 012.745-2.805 9.51 9.51 0 011.305-.435 5.595 5.595 0 014.98 1.5l21.855 19.5 1.14 1.02c9.555 8.49 9.825 8.745 8.415 23.805l-27.825 7.5c-1.125-6.885-7.365-13.2-13.5-19.32C15.09 99 9.825 93.615 10.02 89.715zm59.91 39.765a3.14 3.14 0 01-1.95 1.5l-33.18 8.895a3.134 3.134 0 01-2.43-.375 3.083 3.083 0 01-1.5-1.935l-1.5-5.685a3.15 3.15 0 01.33-2.43 3.224 3.224 0 011.935-1.5L64.8 119.1a3.225 3.225 0 013.93 2.265l1.5 5.685a3.194 3.194 0 01-.3 2.43zm-30.795 2.865a2.792 2.792 0 01-2.506 3.516 2.79 2.79 0 112.506-3.516zm95.19-107.385a9.572 9.572 0 00-9.555 9.54l.255 31.65a9.643 9.643 0 00-7.665 2.565l-21.855 19.5-1.14 1.02c-9.99 8.88-11.175 10.35-9.81 25.875a7.083 7.083 0 00-7.05 5.25l-1.5 5.685A7.139 7.139 0 0081 134.76l33.195 8.895a7.123 7.123 0 008.715-5.04l1.5-5.685a7.079 7.079 0 00-4.26-8.43c.675-5.82 6.645-11.85 12.435-17.685 5.79-5.835 11.535-11.64 11.295-17.265V34.5a9.553 9.553 0 00-9.555-9.54zM120.66 132l-1.5 5.685a3.079 3.079 0 01-1.5 1.935 3.133 3.133 0 01-2.43.33l-33.21-8.97a3.14 3.14 0 01-1.95-1.5 3.193 3.193 0 01-.33-2.43l1.5-5.685a3.225 3.225 0 013.93-2.265l33.195 8.895a3.225 3.225 0 011.935 1.5 3.153 3.153 0 01.36 2.505zm9.15-27.84c-6.075 6.12-12.315 12.435-13.5 19.32l-27.81-7.53c-1.41-15-1.14-15.315 8.415-23.805L120 71.655a5.6 5.6 0 014.98-1.5 9.51 9.51 0 011.305.435A4.145 4.145 0 01129 73.305a6.16 6.16 0 01-1.71 5.235l-20.235 17.715a1.992 1.992 0 00-.683 1.352 1.99 1.99 0 00.473 1.438 1.985 1.985 0 001.352.683 1.976 1.976 0 001.438-.473L129.84 81.48a9.949 9.949 0 003-9A7.495 7.495 0 00129 67.5l-.285-33a5.552 5.552 0 011.635-3.945 5.608 5.608 0 014.02-1.695 5.657 5.657 0 015.61 5.64v55.2c.195 3.915-5.07 9.3-10.17 14.385v.075zm-13.5 29.7a2.782 2.782 0 01-1.319 1.684 2.789 2.789 0 01-3.097-.233 2.803 2.803 0 01-.969-2.951 2.797 2.797 0 015.127-.624c.364.646.457 1.41.258 2.124zM67.605 22.5c-1.029.354-2.031.78-3 1.275l-1.38-1.38a6.18 6.18 0 00-8.715 0l-1.755 1.755a6.152 6.152 0 000 8.7l1.5 1.5a26.345 26.345 0 00-1.17 2.88H51a6.165 6.165 0 00-6.15 6.15v2.49A6.165 6.165 0 0051 52.02h2.1c.328.984.719 1.946 1.17 2.88l-1.5 1.5a6.152 6.152 0 000 8.7l1.755 1.755a6.18 6.18 0 008.715 0l1.38-1.38a21.19 21.19 0 003 1.275v1.92a6.165 6.165 0 006.15 6.15h2.49a6.165 6.165 0 006.15-6.15v-1.905a21.184 21.184 0 003-1.275l1.38 1.38a6.18 6.18 0 008.715 0l1.755-1.755a6.149 6.149 0 000-8.7l-1.5-1.5a24.09 24.09 0 001.17-2.88H99a6.167 6.167 0 006.15-6.15V43.38A6.167 6.167 0 0099 37.23h-2.1a25.167 25.167 0 00-1.17-2.88l1.5-1.5a6.149 6.149 0 000-8.7l-1.755-1.77a6.18 6.18 0 00-8.715 0l-1.38 1.38a23.095 23.095 0 00-3-1.275v-1.92a6.165 6.165 0 00-6.15-6.15h-2.475a6.165 6.165 0 00-6.15 6.15V22.5zm2.46 3.33a1.95 1.95 0 001.5-1.89v-3.375a2.25 2.25 0 012.25-2.25h2.49a2.25 2.25 0 012.25 2.25V24a1.95 1.95 0 001.5 1.89 18.81 18.81 0 014.8 2.04 1.95 1.95 0 002.385-.285l2.415-2.415a2.252 2.252 0 013.195 0l1.65 1.68a2.265 2.265 0 010 3.18l-2.52 2.52a1.95 1.95 0 00-.33 2.34 19.903 19.903 0 011.92 4.725 1.935 1.935 0 001.89 1.5H99a2.25 2.25 0 012.25 2.25v2.49a2.25 2.25 0 01-2.25 2.25h-3.555a1.935 1.935 0 00-1.89 1.5 19.793 19.793 0 01-1.92 4.71 1.95 1.95 0 00.33 2.34l2.535 2.46a2.265 2.265 0 010 3.18l-1.755 1.755a2.28 2.28 0 01-3.195 0l-2.415-2.415a1.95 1.95 0 00-2.385-.3 18.81 18.81 0 01-4.8 2.04 1.965 1.965 0 00-1.5 1.89v3.36a2.25 2.25 0 01-2.25 2.25h-2.445a2.25 2.25 0 01-2.25-2.25v-3.36a1.965 1.965 0 00-1.5-1.89 18.81 18.81 0 01-4.8-2.04 2.026 2.026 0 00-1.005-.27 1.935 1.935 0 00-1.38.57l-2.415 2.415a2.28 2.28 0 01-3.195 0l-1.71-1.755a2.265 2.265 0 010-3.18l2.52-2.52a1.98 1.98 0 00.33-2.355 19.498 19.498 0 01-1.92-4.71 1.935 1.935 0 00-1.89-1.5H51a2.25 2.25 0 01-2.25-2.25v-2.46A2.25 2.25 0 0151 41.13h3.615a1.935 1.935 0 001.89-1.5 19.911 19.911 0 011.92-4.725 1.95 1.95 0 00-.33-2.34L55.5 30.09a2.265 2.265 0 010-3.18l1.755-1.755a2.253 2.253 0 013.195 0l2.415 2.415a1.95 1.95 0 002.385.285 18.814 18.814 0 014.815-2.04v.015zm-11.07 18.795A16.005 16.005 0 1075 28.62a16.035 16.035 0 00-16.005 16.005zM75 32.535a12.106 12.106 0 11.03 24.212A12.106 12.106 0 0175 32.535z" fill="#242424"/><path fill-rule="evenodd" clip-rule="evenodd" d="M85.5 7.71a1.5 1.5 0 100-3 1.5 1.5 0 000 3zm6.631-.324a1.5 1.5 0 11-3 0 1.5 1.5 0 013 0zm.276 68.988l-.576-2.576a.746.746 0 00-1.293-.337L85.69 79.03a.77.77 0 00.27 1.209l6.74 2.885c.564.241 1.158-.266 1.023-.872l-.643-2.875a38.287 38.287 0 0024.7-32.144c.906-9.193-1.513-18.447-6.821-26.1a39.663 39.663 0 00-15.72-13.285c-.948-.445-2.01.247-2.062 1.308-.032.646.335 1.24.911 1.513a36.656 36.656 0 0114.42 12.225c4.898 7.06 7.12 15.583 6.287 24.035a35.212 35.212 0 01-10.822 22.133 35.412 35.412 0 01-11.565 7.312zM60.058 11.47l.576 2.576a.746.746 0 001.293.337l4.85-5.569a.77.77 0 00-.271-1.21l-6.74-2.885c-.563-.24-1.158.267-1.023.873l.643 2.874a38.29 38.29 0 00-24.7 32.144c-.905 9.194 1.513 18.448 6.821 26.1a39.669 39.669 0 0015.72 13.286c.948.445 2.01-.247 2.062-1.308a1.593 1.593 0 00-.911-1.514 36.657 36.657 0 01-14.42-12.224c-4.898-7.06-7.12-15.584-6.287-24.036a35.218 35.218 0 0110.822-22.132 35.413 35.413 0 0111.565-7.312zm3.78 68.663a1.5 1.5 0 11-3 0 1.5 1.5 0 013 0zm3.639 2.385a1.5 1.5 0 100-3 1.5 1.5 0 000 3z" fill="#84D904"/></svg>