<svg width="144" height="138" fill="none" xmlns="http://www.w3.org/2000/svg"><path d="M1 10.933c.219-.773.404-1.562.672-2.335C3.368 3.584 8.152.05 13.54.05 36.454 0 59.384-.033 82.297.066c9.485.033 15.444 10.078 11.046 18.314-.185.362-.386.707-.705 1.266h1.628c6.916 0 13.832-.033 20.731.017 5.406.033 10.089 3.37 11.902 8.319 1.813 4.965.319 10.39-3.827 13.81-2.283 1.873-4.936 2.86-7.907 2.926-2.417.049-4.818 0-7.352 0 .503 1.348 1.057 2.236 2.551 2.745 18.348 6.248 29.595 18.71 32.583 37.517 3.861 24.414-12.724 47.348-37.4 52.034-16.451 3.123-30.82-1.348-42.873-12.774-.772-.724-1.494-1.02-2.551-1.02-10.442.033-20.883.066-31.307 0-7.437-.033-13.178-6.033-12.758-13.284.201-3.616 1.863-6.592 4.784-9.025-3.038-2.63-4.8-5.82-4.8-9.782 0-3.962 1.678-7.185 4.783-9.865-3.004-2.614-4.767-5.803-4.784-9.749-.017-3.962 1.662-7.2 5.02-10.078-.437-.262-.907-.443-1.21-.756-3.76-3.896-4.817-8.4-2.92-13.448 1.78-4.702 6.463-7.875 11.6-7.973 2.417-.05 4.817 0 7.47 0-2.804-4.719-2.905-9.355 0-14.123-.622-.033-1.092-.066-1.578-.066h-19.91c-6.915 0-11.666-3.682-13.294-10.275-.05-.213-.151-.41-.235-.624V10.9l.017.033zm95.197 39.802c-23.032 0-41.765 18.397-41.748 40.936.033 22.491 18.733 40.822 41.697 40.854 23.014.033 41.798-18.331 41.815-40.887 0-22.556-18.75-40.92-41.781-40.92M47.835 19.646h33.959c4.381 0 7.654-3.304 7.453-7.447-.185-3.864-3.408-6.708-7.655-6.724H28.715c-4.969 0-9.92-.017-14.89 0-3.29.016-6.076 2.088-6.966 5.096-1.36 4.62 2.098 9.059 7.151 9.075 11.28.033 22.544 0 33.825 0zm32.985 5.458H46.996c-3.542 0-6.346 1.973-7.269 5.048-1.393 4.62 2.065 9.108 7.084 9.124 9.367.033 18.75 0 28.117 0h39.381c2.031 0 3.844-.493 5.372-1.841 2.249-1.973 2.988-4.965 1.947-7.71-1.074-2.829-3.676-4.637-6.866-4.637-11.314-.017-22.645 0-33.959 0m18.331 20.386c0-.18 0-.362.017-.543-.99-.065-1.98-.213-2.971-.213H41.07c-4.08 0-8.158-.017-12.254 0-3.29.033-6.077 2.104-6.95 5.096-1.343 4.62 2.115 9.042 7.168 9.059 10.71.033 21.436 0 32.146.033 1.04 0 1.796-.28 2.568-.987 7.957-7.283 17.34-11.524 28.235-12.429 2.367-.197 4.75-.032 7.134-.032M50.27 78.502c2.468-4.9 4.8-9.536 7.134-14.205.168.115.134.066.1.066-9.735 0-19.455-.082-29.19 0-3.761.033-6.732 3.304-6.766 6.987-.017 3.748 2.988 7.037 6.799 7.102 7.42.099 14.822.033 21.906.033m-.285 25.104c-7 0-14.32-.082-21.655.033-2.92.05-5.053 1.677-6.194 4.341-2.014 4.702 1.477 9.749 6.799 9.765 8.997.033 17.995 0 26.992 0h.705c-2.182-4.669-4.364-9.289-6.647-14.155m-.856-5.475V83.977c-.185 0-.588-.05-.99-.05H29.067c-4.281 0-7.52 3.108-7.52 7.12 0 3.995 3.256 7.052 7.57 7.052 6.11.017 12.237 0 18.348 0h1.645z" fill="#242424"/><path d="M99.083 109.723c-.269 2.795-1.192 3.962-2.988 3.88-1.729-.066-2.568-1.217-2.736-3.814-.856-.329-1.78-.609-2.619-1.036-3.676-1.874-5.909-4.768-6.194-8.894-.134-1.842.99-3.124 2.635-3.206 1.578-.082 2.737 1.052 2.921 2.828.269 2.663 2.266 4.636 5.053 4.981 3.105.394 5.942-1.036 6.882-3.469 1.108-2.86-.923-6-4.33-6.625-1.41-.263-2.87-.23-4.264-.543-4.952-1.052-8.612-5.047-8.88-9.585-.286-4.817 2.753-9.058 7.772-10.702.84-.28 1.158-.592 1.141-1.496-.033-1.76 1.142-2.976 2.72-2.993 1.611-.032 2.803 1.2 2.803 3.058 0 .822.269 1.135 1.074 1.398 4.231 1.43 6.95 4.225 7.739 8.615a7.45 7.45 0 01.101 1.496c-.101 1.496-1.209 2.564-2.686 2.597-1.494.033-2.837-.937-2.803-2.433.1-3.436-3.794-6.313-8.058-5.195-2.652.707-4.431 2.96-4.23 5.36.201 2.367 2.468 4.405 5.204 4.701 1.51.165 3.072.23 4.532.625 4.734 1.315 8.007 5.458 8.058 9.963.067 4.505-3.005 8.532-7.689 10.111-.352.115-.705.23-1.124.361" fill="#242424"/><path d="M132.421 90.668c-.067 6.724-1.394 12.232-4.146 17.394-.706 1.332-1.847 1.858-3.207 1.562-1.175-.263-2.165-1.365-2.081-2.565.05-.69.336-1.397.654-2.039 4.029-8.285 4.348-16.703.689-25.153-2.804-6.494-7.47-11.41-13.832-14.73a21.11 21.11 0 01-.856-.461c-1.612-.904-2.149-2.351-1.41-3.748.738-1.414 2.366-1.973 3.928-1.07 2.534 1.48 5.17 2.91 7.402 4.769 8.478 7.036 12.624 16.128 12.892 26.074M66.752 73.604c2.098.033 3.206 1.989 2.384 4.028-1.007 2.531-2.166 5.03-2.804 7.644-3.055 12.66 3.358 26.42 15.058 32.602.453.23.906.46 1.343.706 1.678.938 2.215 2.434 1.426 3.864-.755 1.364-2.316 1.775-3.978.986a35.36 35.36 0 01-9.853-7.003c-10.878-10.933-13.43-27.192-6.43-40.805.605-1.184 1.377-2.039 2.837-2.022m33.775-17.41c1.578.016 2.853 1.249 2.82 2.761-.034 1.513-1.31 2.697-2.904 2.68-1.578-.016-2.837-1.25-2.82-2.762.016-1.512 1.309-2.696 2.904-2.68zm-8.545 65.431c1.578 0 2.854 1.233 2.837 2.746 0 1.512-1.292 2.712-2.87 2.696-1.578 0-2.854-1.233-2.837-2.746 0-1.512 1.292-2.712 2.887-2.696" fill="#84D904"/></svg>