<svg width="128" height="48" fill="none" xmlns="http://www.w3.org/2000/svg"><g clip-path="url(#clip0_5_474)"><path d="M83.348 39.853l.863-2.516H5.3v2.516h78.05zm39.879-.002v-2.514H86.12l-.872 2.516 37.979-.002z" fill="#84D904"/><path d="M41.77 43.021v1.053h-1.907v3.812H38.81v-3.812h-1.907v-1.053h4.867zm5.012 1.053H43.35v.852h2.764v1.055H43.35v.851h3.432v1.054H42.29V43.02h4.493v1.053zm1.717 0v2.757h3.804v1.053H48.45a1 1 0 01-.924-.61.995.995 0 01-.078-.392v-2.865a1.002 1.002 0 01.292-.71.994.994 0 01.71-.291h3.852v1.053h-3.804v.005zm9.481-1.053v4.865h-1.048V45.98h-2.873v1.905h-1.047V43.02h1.047v1.905h2.873V43.02h1.047zm4.58 0h1.06v4.865h-1.08l-2.736-3.257v3.257h-1.047V43.02h1.08l2.724 3.244V43.02zm5.669 0c.135 0 .263.027.385.078a1.005 1.005 0 01.537.531.996.996 0 01.078.393v2.865c0 .139-.027.27-.078.392a.944.944 0 01-.217.318c-.092.09-.2.16-.32.214a.979.979 0 01-.385.078h-2.865a1.003 1.003 0 01-.71-.292.992.992 0 01-.292-.71v-2.865a1.003 1.003 0 01.292-.71.996.996 0 01.71-.291h2.865zm-2.817 3.811h2.756v-2.756h-2.756v2.756zm4.568-3.819h1.047v3.82h3.817v1.053H69.98v-4.873zm9.107.008c.136 0 .263.027.385.078a1.005 1.005 0 01.537.531.996.996 0 01.078.393v2.865a.99.99 0 01-.078.392.944.944 0 01-.217.318c-.093.09-.2.16-.32.214a.979.979 0 01-.385.078h-2.864a1.003 1.003 0 01-.71-.292.992.992 0 01-.292-.71v-2.865a1.003 1.003 0 01.291-.71.996.996 0 01.71-.291h2.865zm-2.817 3.811h2.756v-2.756H76.27v2.756zm9.426-2.352h-1.061v-.406h-2.757v2.757h2.757v-.73H83.58v-1.053h2.115v1.838a1.004 1.004 0 01-1.01 1.002h-2.859a1.003 1.003 0 01-.71-.292.993.993 0 01-.292-.71V44.02a1.002 1.002 0 01.61-.924.995.995 0 01.392-.078h2.86a1.002 1.002 0 01.927.61.965.965 0 01.082.392v.459zm5.924-1.459l-2.257 3.053v1.812h-1.055v-1.817l-.886-1.189a15.857 15.857 0 01-.34-.457l-.359-.493-.35-.48-.314-.429h1.25l1.527 1.92a352.444 352.444 0 001.52-1.92h1.265zM36.358 18.084l-.006 6.89-12.901-.006.019-12.101-4.792 4.703-.004 17.952h4.792l-.004-6.667H36.35l.006 6.667h4.79l.004-17.438h-4.792zm49.813 13.499l-1.352 3.939H67.08l.004-17.436h4.807l-.001 13.497h14.28zm17.151-6.408l-10.868-.004c-.79-.047-1.404-.672-1.404-1.565 0-1.088.916-1.532 1.444-1.532h13.24l1.346-3.985H91.534c-2.593 0-5.057 2.406-5.057 5.368 0 4.22 3.668 5.528 5.148 5.528h10.766c1.152 0 1.442.971 1.442 1.348 0 .827-.612 1.417-1.315 1.417H88.012l-1.324 3.77h16.486c3.765 0 5.064-3.38 5.064-4.924 0-2.968-2.081-5.42-4.916-5.42zm24.499-7.085h-18.859l-1.309 3.876h7.703l-.002 13.556h4.806l.004-13.556h6.348l1.309-3.877zM49.275 28.512h11.722l1.2-3.554-12.924-.002v-2.99h13.94l1.31-3.877H44.48V35.52h18.298l1.308-3.882H49.273l.002-3.126z" fill="#242424"/><path d="M26.79.164L18.164 8.79V5.503h-5.602v8.89L.187 26.767l3.382 3.384 4.198-4.198v9.566h4.795V21.16L26.79 6.931l9.505 9.505h6.768L26.79.164z" fill="#242424"/></g><defs><clipPath id="clip0_5_474"><path fill="#fff" d="M0 0h128v48H0z"/></clipPath></defs></svg>