<svg width="128" height="48" fill="none" xmlns="http://www.w3.org/2000/svg"><g clip-path="url(#clip0_5_2279)"><path d="M83.348 39.853l.863-2.516H5.3v2.516h78.05zm39.879-.002v-2.514H86.12l-.872 2.516 37.979-.002z" fill="#84D904"/><path d="M41.77 43.02v1.054h-1.907v3.811H38.81v-3.811h-1.907V43.02h4.867zm5.013 1.054H43.35v.851h2.764v1.056H43.35v.85h3.433v1.054H42.29v-4.864h4.493v1.053zm1.716.001v2.756h3.804v1.053H48.45a1.003 1.003 0 01-.71-.291.993.993 0 01-.292-.71v-2.866a1.002 1.002 0 01.292-.71.996.996 0 01.71-.291h3.852v1.053h-3.804v.006zm9.481-1.055v4.865h-1.048v-1.904h-2.873v1.904h-1.047v-4.864h1.047v1.904h2.873v-1.904h1.047zm4.58 0h1.06v4.865h-1.08l-2.736-3.257v3.257h-1.047v-4.864h1.08l2.724 3.243V43.02zm5.668 0c.136 0 .263.027.385.079a.993.993 0 01.537.531.996.996 0 01.078.392v2.865c0 .14-.026.27-.078.393a.946.946 0 01-.217.318c-.091.09-.2.16-.32.213a.979.979 0 01-.385.078h-2.864a1.003 1.003 0 01-.71-.291.994.994 0 01-.292-.71v-2.866a1.003 1.003 0 01.291-.71.996.996 0 01.71-.291h2.865zm-2.817 3.812h2.757v-2.756H65.41v2.756zm4.568-3.818h1.048v3.819h3.817v1.053h-4.865v-4.872zm9.108.006c.136 0 .263.027.385.079a1.005 1.005 0 01.537.531.996.996 0 01.078.392v2.865c0 .14-.026.27-.078.393a.946.946 0 01-.217.318c-.093.09-.2.16-.32.213a.979.979 0 01-.385.078h-2.864a1.003 1.003 0 01-.71-.291.994.994 0 01-.292-.71v-2.866a1.003 1.003 0 01.291-.71.996.996 0 01.71-.291h2.865zm-2.817 3.812h2.756v-2.756H76.27v2.756zm9.425-2.352h-1.06v-.405h-2.757v2.756h2.756v-.73h-1.053v-1.053h2.114v1.838a1.005 1.005 0 01-1.01 1.002h-2.858a1.003 1.003 0 01-.71-.291.994.994 0 01-.292-.71V44.02a1.002 1.002 0 01.61-.923.996.996 0 01.392-.078h2.859a1.002 1.002 0 01.927.61.965.965 0 01.082.391v.46zm5.926-1.46l-2.257 3.054v1.811h-1.055v-1.817l-.886-1.188c-.109-.14-.221-.292-.341-.458-.12-.163-.24-.33-.358-.493l-.35-.48-.315-.428h1.25l1.527 1.92.764-.96c.261-.33.514-.65.756-.96h1.265zM36.358 18.083l-.006 6.89-12.9-.006.018-12.1-4.792 4.702-.004 17.953h4.793l-.004-6.667H36.35l.006 6.667h4.79l.005-17.439h-4.793zm49.813 13.5l-1.352 3.94H67.08l.004-17.437h4.807l-.001 13.497h14.28zm17.151-6.407l-10.869-.004c-.79-.048-1.404-.673-1.404-1.566 0-1.088.917-1.531 1.444-1.531h13.24l1.347-3.985H91.533c-2.592 0-5.057 2.406-5.057 5.367 0 4.22 3.669 5.528 5.149 5.528h10.765c1.153 0 1.442.971 1.442 1.349 0 .826-.611 1.417-1.314 1.417H88.011l-1.323 3.77h16.485c3.766 0 5.065-3.38 5.065-4.925 0-2.967-2.082-5.42-4.916-5.42zm24.499-7.086h-18.859l-1.309 3.876h7.703l-.002 13.556h4.806l.004-13.556h6.348l1.309-3.876zM49.274 28.513h11.722l1.2-3.555-12.924-.002v-2.99h13.941l1.309-3.876H44.48v17.43h18.297l1.309-3.882H49.272l.002-3.125z" fill="#fff"/><path d="M26.79.164l-8.626 8.627V5.503h-5.602v8.89L.187 26.768l3.382 3.385 4.198-4.198v9.565h4.795V21.16L26.79 6.932l9.505 9.504h6.768L26.79.164z" fill="#fff"/></g><defs><clipPath id="clip0_5_2279"><path fill="#fff" d="M0 0h128v48H0z"/></clipPath></defs></svg>