<svg width="24" height="24" fill="none" xmlns="http://www.w3.org/2000/svg"><path fill-rule="evenodd" clip-rule="evenodd" d="M4.016 10.928a64.431 64.431 0 009.065 9.065l.855.7a3.86 3.86 0 005.173-.258l2.208-2.209-4.198-4.198-3.149 3.149-7.15-7.15 3.16-3.139-4.197-4.196L3.575 4.9a3.86 3.86 0 00-.258 5.173l.699.855zm7.937 10.444a66.203 66.203 0 01-9.316-9.316l-.699-.855a5.64 5.64 0 01.377-7.56L5.783.173l6.72 6.72-3.16 3.138 4.627 4.627 3.149-3.15 6.718 6.718-3.468 3.468a5.64 5.64 0 01-7.56.377l-.856-.7z" fill="#242424"/></svg>