<svg width="21" height="17" fill="none" xmlns="http://www.w3.org/2000/svg"><path fill-rule="evenodd" clip-rule="evenodd" d="M1.45 7.346c5.63-2.42 9.393-3.983 11.29-4.75C18.097.413 19.211.03 19.933 0c.15 0 .512.03.752.207.181.147.241.354.271.501.03.148.06.472.03.738-.3 2.98-1.535 10.267-2.197 13.6-.27 1.416-.813 1.888-1.325 1.948-1.113.088-1.986-.738-3.07-1.417-1.686-1.091-2.649-1.77-4.305-2.832-1.896-1.239-.662-1.918.422-3.01.27-.294 5.238-4.69 5.328-5.103 0-.06.03-.236-.09-.325-.12-.088-.271-.059-.392-.03-.18.03-2.89 1.8-8.158 5.282-.782.53-1.475.767-2.107.767-.692 0-2.017-.384-3.01-.708-1.204-.384-2.167-.59-2.077-1.24.06-.324.542-.678 1.445-1.032z" fill="#242424"/></svg>