<svg width="22" height="13" fill="none" xmlns="http://www.w3.org/2000/svg"><path fill-rule="evenodd" clip-rule="evenodd" d="M3.232 0H.825C.138 0 0 .322 0 .677c0 .635.816 3.78 3.8 7.941C5.787 11.46 8.59 13 11.14 13c1.53 0 1.72-.342 1.72-.931V9.92c0-.684.144-.821.629-.821.357 0 .97.178 2.397 1.548C17.518 12.27 17.786 13 18.705 13h2.406c.688 0 1.032-.342.833-1.017-.216-.673-.996-1.65-2.03-2.806-.561-.66-1.403-1.37-1.657-1.726-.358-.456-.255-.66 0-1.065 0 0 2.932-4.11 3.239-5.505.152-.508 0-.881-.73-.881h-2.405c-.612 0-.894.322-1.047.677 0 0-1.224 2.968-2.958 4.897-.56.558-.816.736-1.122.736-.152 0-.374-.178-.374-.685V.88c0-.61-.178-.881-.688-.881H8.39c-.382 0-.612.283-.612.55 0 .578.867.711.956 2.334V6.41c0 .773-.14.913-.447.913-.816 0-2.8-2.981-3.977-6.393C4.079.267 3.847 0 3.232 0z" fill="#242424"/></svg>